<?xml version="1.0" standalone="no"?>
<!DOCTYPE svg PUBLIC "-//W3C//DTD SVG 20010904//EN"
 "http://www.w3.org/TR/2001/REC-SVG-20010904/DTD/svg10.dtd">
<svg version="1.0" xmlns="http://www.w3.org/2000/svg"
 width="700.000000pt" height="700.000000pt" viewBox="0 0 700.000000 700.000000"
 preserveAspectRatio="xMidYMid meet">
<metadata>
Created by potrace 1.14, written by Peter Selinger 2001-2017
</metadata>
<g transform="translate(0.000000,700.000000) scale(0.100000,-0.100000)"
fill="#000000" stroke="none">
<path d="M3179 6897 c-2 -3 -40 -7 -83 -11 -359 -30 -779 -207 -1091 -457 -74
-60 -230 -210 -292 -280 -101 -116 -221 -296 -292 -436 -124 -248 -169 -389
-217 -688 -14 -85 -20 -374 -10 -445 3 -19 8 -55 11 -80 5 -46 12 -86 20 -130
3 -14 7 -35 9 -47 27 -139 108 -364 187 -520 54 -105 192 -316 261 -398 76
-91 263 -270 359 -342 497 -377 1097 -517 1704 -397 314 62 639 215 900 423
89 71 254 236 327 326 237 296 406 682 462 1059 26 174 27 436 1 586 -21 124
-29 165 -52 250 -73 277 -232 581 -425 814 -60 72 -214 225 -273 272 -27 21
-52 42 -55 45 -3 3 -36 28 -75 56 -262 189 -573 320 -880 372 -33 5 -76 13
-95 16 -42 7 -394 17 -401 12z"/>
<path d="M4967 2961 c-177 -58 -330 -234 -344 -396 -10 -112 10 -180 113 -379
107 -210 131 -287 132 -428 1 -159 -42 -296 -133 -424 -104 -145 -274 -254
-436 -279 -196 -31 -390 25 -574 163 -44 33 -100 79 -125 102 -128 119 -278
178 -405 158 -163 -25 -346 -193 -390 -357 -24 -94 -6 -213 48 -316 67 -125
250 -314 405 -418 263 -177 610 -282 937 -282 125 0 185 8 305 39 489 128 969
518 1178 957 36 76 87 227 96 285 4 21 8 46 11 54 4 16 15 93 20 150 5 49 6
291 1 315 -2 11 -7 45 -11 75 -29 221 -126 465 -275 688 -100 150 -172 222
-267 269 -93 46 -194 54 -286 24z"/>
</g>
</svg>
