<?xml version="1.0" encoding="utf-8"?>
<!-- Generator: Adobe Illustrator 26.3.1, SVG Export Plug-In . SVG Version: 6.00 Build 0)  -->
<svg version="1.1" id="Layer_1" xmlns="http://www.w3.org/2000/svg" xmlns:xlink="http://www.w3.org/1999/xlink" x="0px" y="0px"
	 viewBox="0 0 380 380" style="enable-background:new 0 0 380 380;" xml:space="preserve">
<style type="text/css">
	.st0{fill:#59CAEE;}
	.st1{fill:#2F94D1;}
</style>
<path class="st0" d="M296.2,122.4c-1.1,61.7-50.4,115-115.8,115.2c-64.8,0.2-119.3-56.1-115.8-122.2c3.1-59.4,55-111,117.6-110
	C244.6,6.5,296.9,59.3,296.2,122.4z"/>
<path class="st1" d="M225.5,374.5c-26.4-1.8-49.7-10.8-66.6-32.1c-10.6-13.4-9.5-26.5,2.1-36.5c10.9-9.5,23.1-8.4,35.2,3.1
	c17.9,17.1,39.3,18.9,55.3,4.9c12.4-11.2,16.4-29,9.8-44.4c-1.9-4-3.9-7.9-6.2-11.7c-7.9-14.2-5-26.6,8.2-35.5
	c10.6-7.2,23-5.1,32.3,7c17.2,22.4,23.8,47.6,17.8,75.9C304.7,345.8,257.2,376.1,225.5,374.5z"/>
</svg>
